<svg width="67" height="32" viewBox="0 0 67 32" fill="none" xmlns="http://www.w3.org/2000/svg">
<path d="M65.7627 17.3417H2.3051C1.62188 17.3417 1.06738 16.7314 1.06738 15.9794C1.06738 15.2275 1.62188 14.6172 2.3051 14.6172H65.7627C66.4459 14.6172 67.0004 15.2275 67.0004 15.9794C67.0004 16.7314 66.4459 17.3417 65.7627 17.3417Z" fill="#1A1A18"/>
<path d="M16.7429 30.9695C16.5884 30.9695 16.4338 30.9132 16.3155 30.8017L1.1763 16.3884C1.064 16.2804 1 16.1344 1 15.9815C1 15.8286 1.064 15.6826 1.1763 15.5745L16.3167 1.16812C16.5521 0.943959 16.9349 0.943959 17.1704 1.16812C17.4059 1.39229 17.4059 1.7567 17.1704 1.98087L2.45752 15.9815L17.1704 29.9878C17.4059 30.212 17.4059 30.5764 17.1704 30.8006C17.0521 30.9132 16.8975 30.9695 16.7429 30.9695Z" fill="#1A1A18" stroke="#1A1A18" stroke-width="0.681818"/>
</svg>
