<svg width="17" height="24" viewBox="0 0 17 24" fill="none" xmlns="http://www.w3.org/2000/svg">
<path d="M9 23.5682L9 1.43176C9 1.19343 8.776 1 8.5 1C8.224 1 8 1.19343 8 1.43176L8 23.5682C8 23.8066 8.224 24 8.5 24C8.776 24 9 23.8066 9 23.5682Z" fill="white"/>
<path d="M16.4732 8.93001C16.4732 8.8492 16.4438 8.76838 16.3855 8.70651L8.84988 0.791395C8.79338 0.73268 8.71705 0.699219 8.63712 0.699219C8.55718 0.699219 8.48085 0.73268 8.42435 0.791395L0.892343 8.70714C0.775143 8.83026 0.775143 9.03039 0.892342 9.1535C1.00954 9.27661 1.20007 9.27661 1.31727 9.1535L8.63712 1.46125L15.96 9.1535C16.0772 9.27661 16.2677 9.27661 16.3849 9.1535C16.4438 9.09163 16.4732 9.01082 16.4732 8.93001Z" fill="white" stroke="white" stroke-width="0.681818"/>
</svg>
